<?xml version="1.0" encoding="UTF-8"?>
<svg width="18px" height="18px" viewBox="0 0 18 18" version="1.1" xmlns="http://www.w3.org/2000/svg" xmlns:xlink="http://www.w3.org/1999/xlink">
    <!-- Generator: Sketch 59.1 (86144) - https://sketch.com -->
    <title>iconmonstr-whatsapp-1</title>
    <desc>Created with Sketch.</desc>
    <g id="Page-1" stroke="none" stroke-width="1" fill="none" fill-rule="evenodd">
        <g id="Artboard" transform="translate(-3.000000, -3.000000)" fill="#FFFFFF" fill-rule="nonzero">
            <g id="iconmonstr-whatsapp-1" transform="translate(3.000000, 3.000000)">
                <path d="M0.04275,18 L1.308,13.37775 C0.52725,12.02475 0.117,10.491 0.11775,8.91825 C0.12,4.00125 4.12125,0 9.0375,0 C11.42325,0.00075 13.66275,0.93 15.34725,2.616 C17.031,4.302 17.958,6.543 17.9572505,8.9265 C17.955,13.84425 13.95375,17.8455 9.0375,17.8455 C7.545,17.84475 6.07425,17.4705 4.7715,16.7595 L0.04275,18 Z M4.9905,15.14475 C6.2475,15.891 7.4475,16.338 9.0345,16.33875 C13.1205,16.33875 16.449,13.01325 16.4512505,8.925 C16.45275,4.8285 13.14,1.5075 9.0405,1.506 C4.9515,1.506 1.62525,4.8315 1.62374914,8.919 C1.623,10.58775 2.112,11.83725 2.93325,13.1445 L2.184,15.8805 L4.9905,15.14475 Z M13.53075,11.04675 C13.47525,10.95375 13.32675,10.89825 13.10325,10.7865 C12.8805,10.67475 11.78475,10.1355 11.58,10.06125 C11.376,9.987 11.2275,9.9495 11.07825,10.173 C10.92975,10.39575 10.50225,10.89825 10.3725,11.04675 C10.24275,11.19525 10.11225,11.214 9.8895,11.10225 C9.66675,10.9905 8.94825,10.75575 8.097,9.996 C7.43475,9.405 6.987,8.67525 6.85725,8.45175 C6.7275,8.229 6.84375,8.10825 6.95475,7.99725 C7.05525,7.8975 7.1775,7.737 7.28925,7.6065 C7.4025,7.4775 7.43925,7.3845 7.51425,7.23525 C7.5885,7.08675 7.55175,6.95625 7.4955,6.8445 C7.43925,6.7335 6.99375,5.63625 6.8085,5.19 C6.627,4.75575 6.44325,4.81425 6.30675,4.8075 L5.87925,4.8 C5.73075,4.8 5.48925,4.8555 5.28525,5.079 C5.08125,5.3025 4.50525,5.841 4.50525,6.93825 C4.50525,8.0355 5.304,9.09525 5.415,9.24375 C5.52675,9.39225 6.98625,11.64375 9.222,12.609 C9.75375,12.8385 10.16925,12.97575 10.4925,13.0785 C11.0265,13.248 11.5125,13.224 11.8965,13.167 C12.32475,13.10325 13.215,12.62775 13.401,12.10725 C13.587,11.586 13.587,11.13975 13.53075,11.04675 L13.53075,11.04675 Z" id="Shape"></path>
            </g>
        </g>
    </g>
</svg>