<?xml version="1.0" encoding="UTF-8"?>
<svg width="166px" height="29px" viewBox="0 0 166 29" version="1.1" xmlns="http://www.w3.org/2000/svg" xmlns:xlink="http://www.w3.org/1999/xlink">
    <!-- Generator: Sketch 59.1 (86144) - https://sketch.com -->
    <title>logo-site copy</title>
    <desc>Created with Sketch.</desc>
    <g id="Page-1" stroke="none" stroke-width="1" fill="none" fill-rule="evenodd">
        <g id="logo-site-copy" transform="translate(-1.000000, 0.000000)" fill-rule="nonzero">
            <g id="Group-8" transform="translate(61.065152, 0.766758)" fill="#2A495B">
                <path d="M0.897612799,24.1597796 C0.312213349,24.1597796 3.10000001e-07,24.4719927 3.10000001e-07,25.0573921 L3.10000001e-07,26.9306703 C3.10000001e-07,27.5160698 0.312213349,27.8282828 0.897612799,27.8282828 L1.63911877,27.8282828 C5.4637285,27.8282828 7.41506,25.7208448 7.41506,21.7011019 L7.41506,3.08539945 C7.41506,2.5 7.10284696,2.18778696 6.51744751,2.18778696 L4.05876982,2.18778696 C3.47337037,2.18778696 3.16115733,2.5 3.16115733,3.08539945 L3.16115733,21.7011019 C3.16115733,23.4182736 2.49770463,24.1597796 0.897612799,24.1597796 Z" id="Path" transform="translate(3.707530, 15.008035) scale(-1, 1) translate(-3.707530, -15.008035) "></path>
                <path d="M24.9793388,9.05417815 C24.9793388,8.4687787 24.6671258,8.15656566 24.0817264,8.15656566 L21.7401286,8.15656566 C21.1547291,8.15656566 20.8425161,8.4687787 20.8425161,9.05417815 L20.8425161,20.6450872 C20.8425161,23.1818182 19.8668503,24.3526171 17.7203857,24.3526171 C15.599782,24.3526171 14.6219353,23.2098603 14.5986805,20.7361818 L14.5982553,9.05417815 C14.5982553,8.4687787 14.2860422,8.15656566 13.7006428,8.15656566 L11.2419651,8.15656566 C10.6565657,8.15656566 10.3443526,8.4687787 10.3443526,9.05417815 L10.3443526,20.8402204 C10.3443526,25.4843893 12.9201102,28.0211203 17.681359,28.0211203 C22.4035813,28.0211203 24.9793388,25.4843893 24.9793388,20.8402204 L24.9793388,9.05417815 Z" id="Path"></path>
                <path d="M42.6836547,21.9375574 C42.6836547,18.2671028 41.0006547,16.3943983 36.4986297,15.7135638 L36.3613407,15.6932966 C33.7075298,15.3030303 32.8879706,14.7566575 32.8879706,13.546832 C32.8879706,12.0247934 34.0587695,11.2052342 36.2052342,11.2052342 C37.4150597,11.2052342 38.5858586,11.5174472 39.5615243,12.1418733 C40.0688705,12.4540863 40.4591368,12.4150597 40.7713499,11.9077135 L41.7470156,10.3466483 C42.020202,9.83930211 41.9811754,9.41000918 41.5128558,9.09779614 C40.0298439,8.12213039 37.9614325,7.57575758 35.7369146,7.57575758 C31.4439853,7.57575758 28.634068,9.956382 28.634068,13.546832 C28.634068,17.062741 30.240568,18.8574001 34.7031955,19.5745567 L35.0460897,19.6289469 C37.6531153,20.0572943 38.4687787,20.6822831 38.4687787,21.9375574 C38.4687787,23.4205693 37.3370064,24.2791552 35.3076217,24.2791552 C33.7465565,24.2791552 32.1464646,23.7327824 30.8195592,22.7961433 C30.3512397,22.4449036 29.9219467,22.4839302 29.6097337,22.9912764 L28.5560147,24.5913682 C28.2828283,25.0596878 28.3218549,25.4889807 28.7511478,25.8402204 C30.5073462,27.2842057 32.6928375,27.9086318 35.8149679,27.9086318 C40.0298439,27.9086318 42.6836547,25.6060606 42.6836547,21.9375574 Z" id="Path"></path>
                <path d="M57.0206782,26.2012839 L56.4990817,24.4352617 C56.3429752,23.8498623 55.9136823,23.7327824 55.3673095,23.9279155 C54.8599633,24.1230487 54.3135904,24.2401286 53.7672176,24.2401286 C51.932966,24.2401286 50.9573003,23.2254362 50.9573003,21.3131313 L50.9573003,11.7125803 L55.6795225,11.7125803 C56.2649219,11.7125803 56.577135,11.4003673 56.577135,10.8149679 L56.577135,8.94168962 C56.577135,8.35629017 56.2649219,8.04407713 55.6795225,8.04407713 L50.9573003,8.04407713 L50.9573003,3.86822773 C50.9573003,3.28282828 50.6450872,2.97061524 50.0596878,2.97061524 L47.6010101,2.97061524 C47.0156107,2.97061524 46.7033976,3.28282828 46.7033976,3.86822773 L46.7033976,8.04407713 L45.0642792,8.04407713 C44.4788797,8.04407713 44.1666667,8.35629017 44.1666667,8.94168962 L44.1666667,10.8149679 C44.1666667,11.4003673 44.4788797,11.7125803 45.0642792,11.7125803 L46.7033976,11.7125803 L46.7033976,21.3131313 C46.7033976,25.6841139 48.8888889,27.9086318 53.2598714,27.9086318 C54.5477502,27.9086318 55.6795225,27.7134986 56.5381084,27.3232323 C57.0290885,27.0966261 57.1545748,26.6872729 57.0206782,26.2012839 L57.0206782,26.2012839 Z" id="Path"></path>
                <path d="M61.9949495,5.03443526 C63.4779614,5.03443526 64.5316804,3.98071625 64.5316804,2.49770432 C64.5316804,1.05371901 63.4779614,-1.13686838e-13 61.9949495,-1.13686838e-13 C60.5119376,-1.13686838e-13 59.4582185,1.05371901 59.4582185,2.49770432 C59.4582185,3.98071625 60.5119376,5.03443526 61.9949495,5.03443526 Z" id="Path"></path>
                <path d="M63.2116621,27.4403122 C63.7970615,27.4403122 64.1092746,27.1280992 64.1092746,26.5426997 L64.1092746,8.94168962 C64.1092746,8.35629017 63.7970615,8.04407713 63.2116621,8.04407713 L60.7529844,8.04407713 C60.1675849,8.04407713 59.8553719,8.35629017 59.8553719,8.94168962 L59.8553719,26.5426997 C59.8553719,27.1280992 60.1675849,27.4403122 60.7529844,27.4403122 L63.2116621,27.4403122 Z" id="Path"></path>
                <path d="M79.9683367,26.2012839 L79.4467401,24.4352617 C79.2906336,23.8498623 78.8613407,23.7327824 78.3149679,23.9279155 C77.8076217,24.1230487 77.2612489,24.2401286 76.714876,24.2401286 C74.8806244,24.2401286 73.9049587,23.2254362 73.9049587,21.3131313 L73.9049587,11.7125803 L78.6271809,11.7125803 C79.2125803,11.7125803 79.5247934,11.4003673 79.5247934,10.8149679 L79.5247934,8.94168962 C79.5247934,8.35629017 79.2125803,8.04407713 78.6271809,8.04407713 L73.9049587,8.04407713 L73.9049587,3.86822773 C73.9049587,3.28282828 73.5927456,2.97061524 73.0073462,2.97061524 L70.5486685,2.97061524 C69.9632691,2.97061524 69.651056,3.28282828 69.651056,3.86822773 L69.651056,8.04407713 L68.0119376,8.04407713 C67.4265381,8.04407713 67.1143251,8.35629017 67.1143251,8.94168962 L67.1143251,10.8149679 C67.1143251,11.4003673 67.4265381,11.7125803 68.0119376,11.7125803 L69.651056,11.7125803 L69.651056,21.3131313 C69.651056,25.6841139 71.8365473,27.9086318 76.2075298,27.9086318 C77.4954086,27.9086318 78.6271809,27.7134986 79.4857668,27.3232323 C79.9767469,27.0966261 80.1022332,26.6872729 79.9683367,26.2012839 L79.9683367,26.2012839 Z" id="Path"></path>
                <path d="M84.9517906,5.03443526 C86.4348026,5.03443526 87.4885216,3.98071625 87.4885216,2.49770432 C87.4885216,1.05371901 86.4348026,-1.13686838e-13 84.9517906,-1.13686838e-13 C83.4687787,-1.13686838e-13 82.4150597,1.05371901 82.4150597,2.49770432 C82.4150597,3.98071625 83.4687787,5.03443526 84.9517906,5.03443526 Z" id="Path"></path>
                <path d="M86.1593205,27.4403122 C86.7447199,27.4403122 87.056933,27.1280992 87.056933,26.5426997 L87.056933,8.94168962 C87.056933,8.35629017 86.7447199,8.04407713 86.1593205,8.04407713 L83.7006428,8.04407713 C83.1152433,8.04407713 82.8030303,8.35629017 82.8030303,8.94168962 L82.8030303,26.5426997 C82.8030303,27.1280992 83.1152433,27.4403122 83.7006428,27.4403122 L86.1593205,27.4403122 Z" id="Path"></path>
                <path d="M97.8351699,7.46786042 C102.734513,7.46786042 105.494074,9.98304301 105.598399,14.9029538 L105.601469,15.1951331 L105.601469,20.3856749 C105.601469,20.4855302 105.600285,20.5844585 105.59792,20.6824548 L105.599174,26.8847567 C105.599174,27.4251254 105.333146,27.7327199 104.831786,27.7768447 L104.701561,27.7823691 L102.242883,27.7823691 C101.796179,27.7823691 101.508546,27.6005717 101.397328,27.2543176 C100.412951,27.6155348 99.2615828,27.8007346 97.9522498,27.8007346 C93.2300275,27.8007346 90.6932966,25.6152433 90.6932966,21.6345271 C90.6932966,17.9312393 93.0462372,15.7965785 97.4232913,15.7055173 L97.71809,15.7024793 L101.347567,15.7024793 L101.347164,15.4105812 C101.321932,12.3972719 100.109395,11.1363636 97.4449036,11.1363636 C96.1960514,11.1363636 94.9862259,11.6437098 94.0105601,12.3852158 C93.575692,12.7113669 93.1744743,12.7010129 92.8381541,12.29166 L92.761708,12.1900826 L91.707989,10.5509642 C91.3957759,10.0826446 91.4348026,9.6533517 91.9031221,9.30211203 C93.6593205,8.05325987 95.5716253,7.46786042 97.8351699,7.46786042 Z M101.344297,18.8628604 L98.3034894,18.8636364 C96.1960514,18.8636364 94.9471993,19.8002755 94.9471993,21.5174472 C94.9471993,23.2346189 96.0399449,24.1322314 97.9522498,24.1322314 C100.220673,24.1322314 101.280451,22.8869618 101.344472,20.2899794 L101.344297,18.8628604 Z" id="Combined-Shape"></path>
            </g>
            <g id="Group-7">
                <path d="M28.543258,16.5161123 C31.7543177,18.9836275 35.9309045,19.8160598 39.8426152,18.7681784 L39.8426152,18.7681784 C41.9960818,18.1951309 43.964567,17.0744625 45.556573,15.515194 L36.5138733,24.5601894 L36.4748466,24.6015117 L36.4059761,24.6703823 C34.837716,26.222299 32.8982838,27.3469168 30.7723673,27.9371407 L30.6415133,27.971576 C28.4335311,28.5615217 26.109367,28.5615217 23.9013847,27.971576 C21.7300421,27.3932771 19.7471029,26.2585864 18.1484004,24.679565 L18.0703471,24.6015117 L18.0703471,24.6015117 L8.8692452,15.4004098 C10.4809089,17.0177129 12.4919143,18.1796447 14.6979871,18.7681784 L14.6979871,18.7681784 C16.9050325,19.3593292 19.2287746,19.3593292 21.43582,18.7681784 L21.43582,18.7681784 C23.642369,18.1779405 25.6538827,17.0153806 27.2668577,15.3981141 L27.2668577,15.3981141 L28.543258,16.5161123 Z" id="Path" fill="#4543A0" transform="translate(27.212909, 21.906075) rotate(5.000000) translate(-27.212909, -21.906075) "></path>
                <path d="M51.0064882,11.8320821 L46.5069473,16.3339187 L46.4564422,16.3844237 L46.4013458,16.4395201 L46.4013458,16.4395201 L46.3485451,16.4946165 L46.2865616,16.5543043 C44.6926229,18.1145978 42.7216446,19.2353346 40.5657168,19.8072887 L40.5657168,19.8072887 C36.0745913,21.014405 31.2807462,19.7301517 27.9945506,16.4395201 L27.9945506,16.4395201 L32.5859188,11.8481519 L32.5859188,11.8481519 L32.5859188,11.8481519 C34.1669145,10.2619608 36.1326236,9.11338549 38.2906938,8.51481859 L38.4123651,8.48038333 C40.6197069,7.89148954 42.9428561,7.89148954 45.150198,8.48038333 C46.8170988,8.9117719 48.3806388,9.672856 49.7484533,10.7186753 C50.1912506,11.0624371 50.6114641,11.4343414 51.0064882,11.8320821 L51.0064882,11.8320821 Z" id="Path" fill="#FF7143" transform="translate(39.500519, 14.145903) rotate(5.000000) translate(-39.500519, -14.145903) "></path>
                <path d="M28.292011,14.2425983 C26.679036,15.8598647 24.6675223,17.0224246 22.4609734,17.6126626 L22.4609734,17.6126626 C20.253928,18.2038134 17.9301859,18.2038134 15.7231405,17.6126626 L15.7231405,17.6126626 C13.5170677,17.0241289 11.5060623,15.862197 9.89439849,14.244894 L0.688705189,5.03920067 C2.30107753,3.42115043 4.31281561,2.25846086 6.51974284,1.6691364 L6.51974284,1.6691364 L6.51974284,1.6691364 C11.0116895,0.466133513 15.8041871,1.75177613 19.0909091,5.04149636 L19.0909091,5.04149636 L28.292011,14.2425983 Z" id="Path" fill="#00DCE8" transform="translate(14.490358, 9.640961) rotate(5.000000) translate(-14.490358, -9.640961) "></path>
            </g>
        </g>
    </g>
</svg>